<?xml version="1.0" encoding="utf-8"?>
<svg version="1.1" id="Layer_1" xmlns="http://www.w3.org/2000/svg" xmlns:xlink="http://www.w3.org/1999/xlink" x="0px" y="0px"
	 width="690.4px" height="217.3px" viewBox="0 0 690.4 217.3" style="enable-background:new 0 0 690.4 217.3;" xml:space="preserve"
	>
<style type="text/css">
	.st0{fill:#59BEC9;}
</style>
<g>
	<g>
		<path class="st0" d="M203.9,109.4v25.6c0,24.2-19.7,43.9-43.9,43.9s-43.9-19.7-43.9-43.9v-20.9c0-32-26-58.1-58.1-58.1
			C26,56,0,82.1,0,114.1v76.3h14.2v-76.3c0-24.2,19.7-43.9,43.9-43.9s43.9,19.7,43.9,43.9l0,20.9c0,32,26,58.1,58.1,58.1
			s58.1-26,58.1-58.1v-25.6H203.9z"/>
		<circle class="st0" cx="58.1" cy="24.2" r="24.2"/>
		<circle class="st0" cx="160" cy="143.7" r="18.5"/>
	</g>
	<g>
		<path class="st0" d="M262.8,109H292c14.2,0,24.2,7.8,24.2,21.3c0,8.2-4,14.7-10.4,18v0.2c8.9,2.6,13.8,10.9,13.8,20.2
			c0,15.7-12.3,23.8-27,23.8h-29.9V109z M292,144.2c7.6,0,12.3-5.3,12.3-12.6c0-7.3-4.5-12.3-12.4-12.3h-17.4v24.9H292z
			 M293.3,182.3c9,0,14.3-5.7,14.3-14.3c0-8.4-5.6-14.2-14.3-14.2h-18.8v28.5H293.3z"/>
		<path class="st0" d="M365.2,155.3h3.1v-1.2c0-9.8-5.7-13.1-13.1-13.1c-5.9,0-11.9,2.4-16.8,5.8l-4.6-8.4c4.8-4,14-7.1,22.3-7.1
			c15,0,23.6,8.3,23.6,23.4v37.8H369v-6c0-2.7,0.4-4.7,0.4-4.7h-0.2c-3.4,6.9-10.8,12.2-19.6,12.2c-10.4,0-20-6.5-20-17.7
			C329.5,157.4,352.8,155.3,365.2,155.3z M352.2,184.8c10,0,16.1-10.2,16.1-19v-2.2h-3c-8.5,0-24.4,0.7-24.4,11.7
			C340.9,180,344.7,184.8,352.2,184.8z"/>
		<path class="st0" d="M396.7,109h11.5v27.7c0,3-0.5,5.1-0.5,5.1h0.2c3.5-6.4,11.1-10.5,19.4-10.5c16.2,0,26.2,12.8,26.2,31.3
			c0,19-11.3,31.3-27.2,31.3c-7.8,0-15.1-4-19-10.8h-0.2c0,0,0.4,1.8,0.4,4.5v4.8h-10.8V109z M424.8,184c9.5,0,17.3-7.7,17.3-21.3
			c0-13-7-21.4-16.9-21.4c-9,0-17.3,6.4-17.3,21.5C407.9,173.5,413.4,184,424.8,184z"/>
		<path class="st0" d="M469.9,207.5c4.7,0,8.6-3.4,10.9-8.9l3-6.9l-25.1-59.1h12.9l15,39.1c1.2,3,2.2,7.2,2.2,7.2h0.2
			c0,0,0.9-4,2-7.1l14.5-39.3H518l-28.1,70.6c-3.5,9.3-11,14.1-19.4,14.1c-6.6,0-11.5-3.7-11.5-3.7l4-8.7
			C463.1,204.9,466.4,207.5,469.9,207.5z"/>
		<path class="st0" d="M528.3,177.4c4.5,4.4,11.3,7,17.6,7c6,0,10.2-2.8,10.2-7.8c0-11.5-30.7-8.4-30.7-28
			c0-11.3,9.8-17.3,21.5-17.3c6.9,0,14.2,1.9,19.4,6.6l-4.6,8.3c-3.5-3.3-9.8-5.3-15.1-5.3c-5.8,0-10.2,2.4-10.2,7.4
			c0,11.7,30.9,8.3,30.9,28c0,10.2-8.7,17.6-21.5,17.6c-8,0-16.9-2.7-22.8-8.7L528.3,177.4z"/>
		<path class="st0" d="M580.6,109h11.8v11.6h-11.8V109z M580.8,132.7h11.5v59.8h-11.5V132.7z"/>
		<path class="st0" d="M612.4,142.6h-7.8v-9.3h8v-17h11.2v17h14.4v9.3h-14.4v26.7c0,11.9,8.4,13.5,12.8,13.5c0.8,0,1.5,0,2.7-0.2
			v10.2c-0.9,0.1-2.2,0.4-4,0.4c-7.7,0-22.9-2.5-22.9-22.5V142.6z"/>
		<path class="st0" d="M651.5,177.4c4.5,4.4,11.3,7,17.6,7c6,0,10.2-2.8,10.2-7.8c0-11.5-30.7-8.4-30.7-28
			c0-11.3,9.8-17.3,21.5-17.3c6.9,0,14.2,1.9,19.4,6.6l-4.6,8.3c-3.5-3.3-9.8-5.3-15.1-5.3c-5.8,0-10.2,2.4-10.2,7.4
			c0,11.7,30.9,8.3,30.9,28c0,10.2-8.7,17.6-21.5,17.6c-8,0-16.9-2.7-22.8-8.7L651.5,177.4z"/>
	</g>
</g>
</svg>
